<svg width="32" height="32" viewBox="0 0 32 32" fill="none" xmlns="http://www.w3.org/2000/svg">
<circle cx="16" cy="16" r="16" fill="#131313"/>
<path d="M8 15.25C7.58579 15.25 7.25 15.5858 7.25 16C7.25 16.4142 7.58579 16.75 8 16.75V15.25ZM24.5303 16.5303C24.8232 16.2374 24.8232 15.7626 24.5303 15.4697L19.7574 10.6967C19.4645 10.4038 18.9896 10.4038 18.6967 10.6967C18.4038 10.9896 18.4038 11.4645 18.6967 11.7574L22.9393 16L18.6967 20.2426C18.4038 20.5355 18.4038 21.0104 18.6967 21.3033C18.9896 21.5962 19.4645 21.5962 19.7574 21.3033L24.5303 16.5303ZM8 16.75H24V15.25H8V16.75Z" fill="url(#paint0_linear_31_7179)"/>
<defs>
<linearGradient id="paint0_linear_31_7179" x1="16" y1="16" x2="16" y2="17" gradientUnits="userSpaceOnUse">
<stop stop-color="#F9FAFB"/>
<stop offset="1" stop-color="#8EA2BB"/>
</linearGradient>
</defs>
</svg>
