<svg width="300" height="300" viewBox="0 0 300 300" fill="none" xmlns="http://www.w3.org/2000/svg">
<g clip-path="url(#clip0_148_302)">
<path d="M300 150C300 67.1578 232.842 0 150 0C67.1578 0 0 67.1578 0 150C0 224.869 54.8531 286.925 126.562 298.178V193.359H88.4766V150H126.562V116.953C126.562 79.3594 148.957 58.5938 183.22 58.5938C199.631 58.5938 216.797 61.5234 216.797 61.5234V98.4375H197.883C179.249 98.4375 173.438 110 173.438 121.863V150H215.039L208.389 193.359H173.438V298.178C245.147 286.925 300 224.87 300 150Z" fill="#1877F2"/>
<path d="M300 150C300 67.1578 232.842 0 150 0C67.1578 0 0 67.1578 0 150C0 224.869 54.8531 286.925 126.562 298.178V193.359H88.4766V150H126.562V116.953C126.562 79.3594 148.957 58.5938 183.22 58.5938C199.631 58.5938 216.797 61.5234 216.797 61.5234V98.4375H197.883C179.249 98.4375 173.438 110 173.438 121.863V150H215.039L208.389 193.359H173.438V298.178C245.147 286.925 300 224.87 300 150Z" fill="#1877F2"/>
<path d="M208.389 193.359L215.039 150H173.438V121.863C173.438 109.999 179.249 98.4375 197.883 98.4375H216.797V61.5234C216.797 61.5234 199.631 58.5938 183.219 58.5938C148.957 58.5938 126.562 79.3594 126.562 116.953V150H88.4766V193.359H126.562V298.178C134.316 299.393 142.152 300.002 150 300C157.848 300.002 165.684 299.393 173.438 298.178V193.359H208.389Z" fill="white"/>
</g>
<defs>
<clipPath id="clip0_148_302">
<rect width="300" height="300" fill="white"/>
</clipPath>
</defs>
</svg>
