<svg width="302" height="300" viewBox="0 0 302 300" fill="none" xmlns="http://www.w3.org/2000/svg">
<path fill-rule="evenodd" clip-rule="evenodd" d="M50.3154 150C50.3154 94.7715 95.3685 50 150.944 50C206.52 50 251.573 94.7715 251.573 150C251.573 200.995 213.162 243.075 163.523 249.226V175H188.68C195.627 175 201.259 169.404 201.259 162.5C201.259 155.596 195.627 150 188.68 150H163.523V125C163.523 118.096 169.154 112.5 176.102 112.5H182.391C189.338 112.5 194.97 106.904 194.97 100C194.97 93.0965 189.338 87.5 182.391 87.5H176.102C155.26 87.5 138.366 104.289 138.366 125V150H113.209C106.262 150 100.63 155.596 100.63 162.5C100.63 169.404 106.262 175 113.209 175H138.366V249.226C88.7266 243.075 50.3154 200.995 50.3154 150ZM150.944 275C220.414 275 276.731 219.035 276.731 150C276.731 80.9644 220.414 25 150.944 25C81.4746 25 25.1582 80.9644 25.1582 150C25.1582 219.035 81.4746 275 150.944 275Z" fill="url(#paint0_linear_124_529)"/>
<defs>
<linearGradient id="paint0_linear_124_529" x1="150.944" y1="25" x2="150.944" y2="275" gradientUnits="userSpaceOnUse">
<stop stop-color="#F9FAFB"/>
<stop offset="1" stop-color="#8EA2BB"/>
</linearGradient>
</defs>
</svg>
