<svg width="294" height="300" viewBox="0 0 294 300" fill="none" xmlns="http://www.w3.org/2000/svg">
<g clip-path="url(#clip0_148_306)">
<path d="M293.425 152.806C293.425 140.516 292.428 131.547 290.27 122.245H149.92V177.72H232.302C230.642 191.506 221.673 212.268 201.741 226.219L201.462 228.077L245.837 262.454L248.912 262.761C277.147 236.684 293.425 198.316 293.425 152.806Z" fill="#4285F4"/>
<path d="M149.92 298.969C190.28 298.969 224.163 285.681 248.912 262.761L201.741 226.219C189.118 235.023 172.176 241.168 149.92 241.168C110.39 241.168 76.839 215.092 64.8791 179.05L63.1261 179.198L16.9833 214.909L16.3799 216.586C40.9616 265.418 91.4543 298.969 149.92 298.969Z" fill="#34A853"/>
<path d="M64.8794 179.05C61.7237 169.748 59.8974 159.782 59.8974 149.485C59.8974 139.186 61.7237 129.221 64.7134 119.92L64.6298 117.939L17.9088 81.655L16.3802 82.3821C6.24891 102.646 0.435547 125.401 0.435547 149.485C0.435547 173.568 6.24891 196.323 16.3802 216.586L64.8794 179.05Z" fill="#FBBC05"/>
<path d="M149.92 57.8004C177.989 57.8004 196.924 69.9252 207.72 80.0576L249.908 38.866C223.998 14.7824 190.28 0 149.92 0C91.4543 0 40.9616 33.5508 16.3799 82.3821L64.7131 119.92C76.8391 83.8775 110.39 57.8004 149.92 57.8004Z" fill="#EB4335"/>
</g>
<defs>
<clipPath id="clip0_148_306">
<rect width="294" height="300" fill="white"/>
</clipPath>
</defs>
</svg>
