<svg width="300" height="299" viewBox="0 0 300 299" fill="none" xmlns="http://www.w3.org/2000/svg">
<path fill-rule="evenodd" clip-rule="evenodd" d="M150 68.408C105.127 68.408 68.75 104.604 68.75 149.254C68.75 193.904 105.127 230.1 150 230.1C188.42 230.1 220.611 203.566 229.076 167.91H162.5C152.145 167.91 143.75 159.557 143.75 149.254C143.75 138.95 152.145 130.597 162.5 130.597H250C260.355 130.597 268.75 138.95 268.75 149.254C268.75 214.511 215.584 267.413 150 267.413C84.4161 267.413 31.25 214.511 31.25 149.254C31.25 83.9962 84.4161 31.0945 150 31.0945C182.669 31.0945 212.286 44.2454 233.737 65.4729C241.08 72.7388 241.112 84.5516 233.81 91.8575C226.507 99.1632 214.636 99.1955 207.294 91.9296C192.582 77.3719 172.361 68.408 150 68.408Z" fill="url(#paint0_linear_124_526)"/>
<defs>
<linearGradient id="paint0_linear_124_526" x1="150" y1="31.0945" x2="150" y2="267.413" gradientUnits="userSpaceOnUse">
<stop stop-color="#F9FAFB"/>
<stop offset="1" stop-color="#8EA2BB"/>
</linearGradient>
</defs>
</svg>
