<svg width="639" height="466" viewBox="0 0 639 466" fill="none" xmlns="http://www.w3.org/2000/svg">
<g filter="url(#filter0_i_124_449)">
<rect x="27.7129" y="304" width="80" height="80" rx="16" transform="rotate(-30 27.7129 304)" fill="white" fill-opacity="0.02"/>
<rect x="28.3959" y="304.183" width="79" height="79" rx="15.5" transform="rotate(-30 28.3959 304.183)" stroke="white" stroke-opacity="0.04"/>
<path opacity="0.16" d="M29.4204 304.458L135.287 332.824M96.5374 265.708L68.1704 371.575M51.5277 290.251L91.5277 359.533M62.3526 284.001L102.353 353.283M73.179 277.75L113.179 347.032M110.745 287.816L41.463 327.816M116.995 298.641L47.7127 338.641M123.245 309.467L53.9633 349.467M104.005 306.141C110.908 318.098 106.811 333.388 94.8539 340.292C82.8966 347.195 67.6068 343.098 60.7033 331.141C53.7997 319.184 57.8966 303.894 69.8539 296.99C81.8112 290.087 97.101 294.184 104.005 306.141ZM93.1792 312.391C96.631 318.37 94.5826 326.015 88.6039 329.466C82.6252 332.918 74.9804 330.87 71.5286 324.891C68.0768 318.912 70.1252 311.267 76.1039 307.816C82.0826 304.364 89.7274 306.412 93.1792 312.391Z" stroke="url(#paint0_radial_124_449)" stroke-width="0.5"/>
<g clip-path="url(#clip0_124_449)">
<path d="M85.1513 315.486L83.1992 322.772L79.5564 321.796M76.3163 329.517L72.751 323.342C72.3948 322.725 72.2166 322.416 72.1259 322.086C72.0454 321.793 72.0164 321.489 72.0385 321.186C72.0634 320.844 72.1775 320.507 72.4073 319.832L75.1507 311.78C75.5767 310.53 75.7897 309.905 76.1916 309.481C76.5461 309.108 77.0017 308.845 77.5022 308.725C78.0701 308.588 78.7188 308.716 80.0165 308.973L88.359 310.623C89.058 310.761 89.4072 310.831 89.7156 310.98C89.989 311.112 90.2371 311.29 90.4505 311.506C90.6913 311.75 90.87 312.058 91.2262 312.675L94.7939 318.855C95.5391 320.145 95.9122 320.792 95.9457 321.43C95.9751 321.993 95.8247 322.55 95.518 323.022C95.1696 323.559 94.5242 323.931 93.2333 324.677L82.1411 331.081C80.8502 331.826 80.2038 332.199 79.5651 332.233C79.0027 332.262 78.4459 332.113 77.9736 331.806C77.4367 331.458 77.0631 330.811 76.3163 329.517Z" stroke="#F5F5F5" stroke-width="2.67" stroke-linecap="round" stroke-linejoin="round"/>
</g>
</g>
<g filter="url(#filter1_i_124_449)">
<rect x="103.924" y="260" width="80" height="80" rx="16" transform="rotate(-30 103.924 260)" fill="white" fill-opacity="0.02"/>
<rect x="104.607" y="260.183" width="79" height="79" rx="15.5" transform="rotate(-30 104.607 260.183)" stroke="white" stroke-opacity="0.04"/>
<path opacity="0.16" d="M105.631 260.458L211.498 288.824M172.748 221.708L144.381 327.575M127.739 246.251L167.739 315.533M138.564 240.001L178.564 309.283M149.39 233.75L189.39 303.032M186.956 243.816L117.674 283.816M193.206 254.641L123.924 294.641M199.456 265.467L130.174 305.467M180.215 262.141C187.119 274.098 183.022 289.388 171.065 296.292C159.108 303.195 143.818 299.098 136.914 287.141C130.011 275.184 134.108 259.894 146.065 252.99C158.022 246.087 173.312 250.184 180.215 262.141ZM169.39 268.391C172.842 274.37 170.794 282.015 164.815 285.466C158.836 288.918 151.191 286.87 147.74 280.891C144.288 274.912 146.336 267.267 152.315 263.816C158.294 260.364 165.938 262.412 169.39 268.391Z" stroke="url(#paint1_radial_124_449)" stroke-width="0.5"/>
<g clip-path="url(#clip1_124_449)">
<path opacity="0.32" d="M165.598 265.53C165.511 265.532 165.468 265.532 165.425 265.531C165.001 265.524 164.584 265.417 164.21 265.217C164.172 265.196 164.135 265.174 164.06 265.131C163.985 265.087 163.947 265.065 163.91 265.043C163.549 264.818 163.246 264.511 163.027 264.146C163.005 264.109 162.984 264.071 162.942 263.995L162.666 263.499C162.226 262.706 162.005 262.308 161.69 262.018C161.411 261.76 161.079 261.566 160.718 261.447C160.31 261.312 159.854 261.312 158.939 261.313L158.179 261.313C157.266 261.314 156.81 261.314 156.403 261.449C156.043 261.568 155.713 261.763 155.434 262.02C155.119 262.31 154.898 262.708 154.456 263.503L154.186 263.987C154.144 264.063 154.123 264.101 154.101 264.138C153.882 264.502 153.581 264.808 153.22 265.032C153.184 265.054 153.146 265.076 153.071 265.12C152.996 265.163 152.957 265.185 152.919 265.206C152.544 265.406 152.127 265.515 151.701 265.521C151.658 265.522 151.615 265.52 151.528 265.519L150.974 265.51C150.058 265.494 149.599 265.486 149.189 265.614C148.825 265.728 148.491 265.919 148.207 266.172C147.886 266.459 147.659 266.855 147.203 267.648L146.823 268.31C146.372 269.096 146.146 269.49 146.06 269.908C145.983 270.279 145.987 270.663 146.07 271.032C146.165 271.45 146.399 271.841 146.868 272.623L147.159 273.109C147.203 273.182 147.226 273.218 147.247 273.255C147.454 273.628 147.569 274.045 147.583 274.471C147.584 274.513 147.584 274.556 147.584 274.642C147.584 274.728 147.584 274.77 147.583 274.812C147.569 275.239 147.453 275.656 147.245 276.028C147.224 276.065 147.203 276.102 147.158 276.175L146.874 276.648C146.402 277.434 146.166 277.827 146.072 278.247C145.988 278.619 145.985 279.004 146.063 279.377C146.151 279.798 146.381 280.195 146.841 280.988L147.217 281.636C147.674 282.424 147.904 282.817 148.224 283.102C148.506 283.353 148.84 283.542 149.201 283.655C149.61 283.782 150.064 283.775 150.975 283.76L151.548 283.751C151.624 283.75 151.666 283.749 151.707 283.75C152.131 283.758 152.547 283.867 152.92 284.067C152.961 284.089 153.001 284.112 153.081 284.159C153.161 284.205 153.201 284.228 153.239 284.253C153.593 284.475 153.89 284.779 154.106 285.138C154.129 285.177 154.151 285.217 154.196 285.297L154.46 285.772C154.904 286.572 155.126 286.972 155.442 287.263C155.722 287.521 156.053 287.716 156.414 287.835C156.822 287.969 157.28 287.969 158.195 287.968L158.954 287.968C159.867 287.967 160.322 287.967 160.729 287.832C161.089 287.713 161.42 287.518 161.699 287.262C162.014 286.971 162.236 286.572 162.679 285.775L162.947 285.295C162.989 285.219 163.01 285.181 163.032 285.144C163.25 284.78 163.552 284.473 163.912 284.249C163.949 284.227 163.986 284.205 164.062 284.161C164.137 284.118 164.175 284.096 164.213 284.076C164.588 283.875 165.006 283.767 165.431 283.76C165.469 283.76 165.507 283.76 165.574 283.761L166.159 283.771C167.075 283.787 167.532 283.795 167.943 283.667C168.306 283.553 168.642 283.363 168.926 283.11C169.246 282.823 169.475 282.425 169.931 281.63L170.306 280.978C170.76 280.188 170.987 279.793 171.073 279.373C171.149 279.002 171.146 278.618 171.063 278.249C170.969 277.834 170.736 277.446 170.274 276.675L169.972 276.173C169.928 276.099 169.907 276.063 169.886 276.026C169.679 275.653 169.563 275.236 169.549 274.81C169.548 274.768 169.548 274.725 169.548 274.639C169.548 274.553 169.549 274.51 169.55 274.468C169.564 274.042 169.68 273.625 169.888 273.252C169.908 273.216 169.93 273.18 169.973 273.108L170.258 272.633C170.731 271.847 170.966 271.454 171.061 271.034C171.144 270.662 171.148 270.278 171.07 269.905C170.983 269.486 170.754 269.091 170.299 268.307L169.914 267.645C169.457 266.858 169.229 266.464 168.909 266.18C168.626 265.928 168.292 265.74 167.931 265.627C167.523 265.5 167.068 265.507 166.159 265.521L165.598 265.53Z" stroke="#F5F5F5" stroke-width="2.67" stroke-linecap="round" stroke-linejoin="round"/>
<path d="M153.946 277.308C155.419 279.859 158.681 280.733 161.231 279.26C163.782 277.787 164.656 274.525 163.184 271.974C161.711 269.423 158.449 268.549 155.898 270.022C153.347 271.495 152.473 274.757 153.946 277.308Z" stroke="#F5F5F5" stroke-width="2.67" stroke-linecap="round" stroke-linejoin="round"/>
</g>
</g>
<g filter="url(#filter2_i_124_449)">
<rect x="180.133" y="216" width="80" height="80" rx="16" transform="rotate(-30 180.133 216)" fill="white" fill-opacity="0.02"/>
<rect x="180.816" y="216.183" width="79" height="79" rx="15.5" transform="rotate(-30 180.816 216.183)" stroke="white" stroke-opacity="0.04"/>
<path opacity="0.16" d="M181.84 216.458L287.707 244.824M248.957 177.708L220.59 283.575M203.948 202.251L243.948 271.533M214.773 196.001L254.773 265.283M225.599 189.75L265.599 259.032M263.165 199.816L193.883 239.816M269.415 210.641L200.133 250.641M275.665 221.467L206.383 261.467M256.424 218.141C263.328 230.098 259.231 245.388 247.274 252.292C235.317 259.195 220.027 255.098 213.123 243.141C206.22 231.184 210.317 215.894 222.274 208.99C234.231 202.087 249.521 206.184 256.424 218.141ZM245.599 224.391C249.051 230.37 247.002 238.015 241.024 241.466C235.045 244.918 227.4 242.87 223.949 236.891C220.497 230.912 222.545 223.267 228.524 219.816C234.502 216.364 242.147 218.412 245.599 224.391Z" stroke="url(#paint2_radial_124_449)" stroke-width="0.5"/>
<g clip-path="url(#clip2_124_449)">
<g opacity="0.32">
<path d="M229.676 221.403C229.429 220.979 229.126 220.591 228.775 220.249C234.516 216.943 241.854 218.917 245.167 224.641C248.494 230.36 246.504 237.701 240.775 241.033C235.046 244.366 227.71 242.36 224.383 236.641C225.824 236.172 227.004 235.126 227.54 233.71C228.097 232.258 227.963 230.632 227.176 229.292C227.001 228.99 226.799 228.704 226.574 228.436C228.018 228.224 229.262 227.304 229.886 225.985C230.575 224.515 230.497 222.801 229.676 221.403Z" fill="#F5F5F5"/>
<path d="M235.801 237.747L235.803 237.749L235.8 237.75L235.799 237.748L235.801 237.747Z" fill="#F5F5F5"/>
<path d="M240.242 232.104L240.243 232.106L240.241 232.107L240.239 232.105L240.242 232.104Z" fill="#F5F5F5"/>
<path d="M233.623 231.306L233.624 231.309L233.622 231.31L233.62 231.308L233.623 231.306Z" fill="#F5F5F5"/>
<path d="M238.063 225.664L238.064 225.666L238.062 225.667L238.061 225.665L238.063 225.664Z" fill="#F5F5F5"/>
<path d="M221.052 230.866L221.053 230.868L221.051 230.87L221.049 230.868L221.052 230.866Z" fill="#F5F5F5"/>
<path d="M224.159 222.914L224.16 222.916L224.158 222.918L224.156 222.915L224.159 222.914Z" fill="#F5F5F5"/>
<path d="M219.54 225.581L219.541 225.583L219.539 225.584L219.538 225.582L219.54 225.581Z" fill="#F5F5F5"/>
</g>
<path d="M229.676 221.403C229.43 220.979 229.127 220.591 228.775 220.249C234.516 216.943 241.854 218.917 245.167 224.641C248.494 230.36 246.504 237.701 240.775 241.033C235.046 244.365 227.71 242.361 224.383 236.642C225.824 236.173 227.003 235.125 227.54 233.709C228.097 232.257 227.963 230.632 227.176 229.292C227.001 228.99 226.799 228.704 226.574 228.436C228.018 228.224 229.261 227.303 229.886 225.984C230.575 224.514 230.497 222.801 229.676 221.403Z" stroke="#F5F5F5" stroke-width="2.67" stroke-linecap="round" stroke-linejoin="round"/>
<path d="M221.053 230.869L221.052 230.866L221.049 230.868L221.051 230.87L221.053 230.869Z" stroke="#F5F5F5" stroke-width="2.67" stroke-linecap="round" stroke-linejoin="round"/>
<path d="M224.16 222.916L224.159 222.914L224.156 222.915L224.158 222.918L224.16 222.916Z" stroke="#F5F5F5" stroke-width="2.67" stroke-linecap="round" stroke-linejoin="round"/>
<path d="M219.541 225.583L219.54 225.581L219.538 225.582L219.539 225.584L219.541 225.583Z" stroke="#F5F5F5" stroke-width="2.67" stroke-linecap="round" stroke-linejoin="round"/>
<path d="M235.803 237.749L235.801 237.747L235.799 237.748L235.8 237.75L235.803 237.749Z" stroke="#F5F5F5" stroke-width="2.67" stroke-linecap="round" stroke-linejoin="round"/>
<path d="M240.243 232.106L240.241 232.104L240.239 232.105L240.241 232.107L240.243 232.106Z" stroke="#F5F5F5" stroke-width="2.67" stroke-linecap="round" stroke-linejoin="round"/>
<path d="M233.624 231.309L233.623 231.306L233.62 231.308L233.622 231.31L233.624 231.309Z" stroke="#F5F5F5" stroke-width="2.67" stroke-linecap="round" stroke-linejoin="round"/>
<path d="M238.064 225.666L238.063 225.664L238.061 225.665L238.062 225.667L238.064 225.666Z" stroke="#F5F5F5" stroke-width="2.67" stroke-linecap="round" stroke-linejoin="round"/>
<path d="M221.053 230.869L221.052 230.866L221.049 230.868L221.051 230.87L221.053 230.869Z" stroke="#F5F5F5" stroke-width="2.67" stroke-linecap="round" stroke-linejoin="round"/>
<path d="M224.16 222.916L224.159 222.914L224.156 222.915L224.158 222.918L224.16 222.916Z" stroke="#F5F5F5" stroke-width="2.67" stroke-linecap="round" stroke-linejoin="round"/>
<path d="M219.541 225.583L219.54 225.581L219.538 225.582L219.539 225.584L219.541 225.583Z" stroke="#F5F5F5" stroke-width="2.67" stroke-linecap="round" stroke-linejoin="round"/>
</g>
</g>
<rect x="256.344" y="172" width="80" height="80" rx="16" transform="rotate(-30 256.344 172)" fill="url(#paint3_linear_124_449)"/>
<rect x="257.027" y="172.183" width="79" height="79" rx="15.5" transform="rotate(-30 257.027 172.183)" stroke="#101318" stroke-opacity="0.16"/>
<path opacity="0.16" d="M258.051 172.458L363.918 200.824M325.168 133.708L296.801 239.575M280.159 158.251L320.159 227.533M290.983 152.001L330.983 221.283M301.81 145.75L341.81 215.032M339.376 155.816L270.094 195.816M345.626 166.641L276.344 206.641M351.876 177.467L282.594 217.467M332.635 174.141C339.539 186.098 335.442 201.388 323.485 208.292C311.527 215.195 296.238 211.098 289.334 199.141C282.431 187.184 286.527 171.894 298.485 164.99C310.442 158.087 325.732 162.184 332.635 174.141ZM321.81 180.391C325.262 186.37 323.213 194.015 317.235 197.466C311.256 200.918 303.611 198.87 300.159 192.891C296.708 186.912 298.756 179.267 304.735 175.816C310.713 172.364 318.358 174.412 321.81 180.391Z" stroke="url(#paint4_radial_124_449)" stroke-width="0.5"/>
<g clip-path="url(#clip3_124_449)">
<path d="M308.114 181.669C302.675 177.582 294.926 182.826 298.926 189.754C302.926 196.682 316.651 196.456 316.651 196.456C316.651 196.456 323.71 184.682 319.71 177.754C315.71 170.826 307.294 174.915 308.114 181.669Z" fill="#131313" stroke="#131313" stroke-width="2.67" stroke-linecap="round" stroke-linejoin="round"/>
</g>
<g filter="url(#filter3_i_124_449)">
<rect x="332.555" y="128" width="80" height="80" rx="16" transform="rotate(-30 332.555 128)" fill="white" fill-opacity="0.02"/>
<rect x="333.238" y="128.183" width="79" height="79" rx="15.5" transform="rotate(-30 333.238 128.183)" stroke="white" stroke-opacity="0.04"/>
<path opacity="0.16" d="M334.262 128.458L440.129 156.824M401.379 89.7075L373.012 195.575M356.37 114.251L396.37 183.533M367.194 108.001L407.194 177.283M378.021 101.75L418.021 171.032M415.587 111.816L346.305 151.816M421.837 122.641L352.554 162.641M428.087 133.467L358.805 173.467M408.846 130.141C415.75 142.098 411.653 157.388 399.696 164.292C387.738 171.195 372.449 167.098 365.545 155.141C358.642 143.184 362.738 127.894 374.696 120.99C386.653 114.087 401.943 118.184 408.846 130.141ZM398.021 136.391C401.473 142.37 399.424 150.015 393.446 153.466C387.467 156.918 379.822 154.87 376.37 148.891C372.919 142.912 374.967 135.267 380.946 131.816C386.924 128.364 394.569 130.412 398.021 136.391Z" stroke="url(#paint5_radial_124_449)" stroke-width="0.5"/>
<path d="M393.505 148.236C393.873 148.874 394.689 149.092 395.326 148.724C395.964 148.356 396.183 147.54 395.814 146.903C395.446 146.265 394.631 146.046 393.993 146.415C393.355 146.783 393.137 147.598 393.505 148.236Z" stroke="#F5F5F5" stroke-width="2.67" stroke-linecap="round" stroke-linejoin="round"/>
<path d="M386.577 152.236C386.945 152.874 387.76 153.092 388.398 152.724C389.036 152.356 389.254 151.54 388.886 150.903C388.518 150.265 387.703 150.046 387.065 150.415C386.427 150.783 386.209 151.598 386.577 152.236Z" stroke="#F5F5F5" stroke-width="2.67" stroke-linecap="round" stroke-linejoin="round"/>
<path d="M389.505 141.308C389.873 141.945 390.689 142.164 391.326 141.796C391.964 141.428 392.183 140.612 391.814 139.974C391.446 139.337 390.631 139.118 389.993 139.486C389.355 139.855 389.137 140.67 389.505 141.308Z" stroke="#F5F5F5" stroke-width="2.67" stroke-linecap="round" stroke-linejoin="round"/>
<path d="M382.577 145.308C382.945 145.945 383.76 146.164 384.398 145.796C385.036 145.428 385.254 144.612 384.886 143.974C384.518 143.337 383.703 143.118 383.065 143.486C382.427 143.855 382.209 144.67 382.577 145.308Z" stroke="#F5F5F5" stroke-width="2.67" stroke-linecap="round" stroke-linejoin="round"/>
<path d="M385.505 134.379C385.873 135.017 386.689 135.236 387.326 134.868C387.964 134.499 388.183 133.684 387.814 133.046C387.446 132.408 386.631 132.19 385.993 132.558C385.355 132.926 385.137 133.742 385.505 134.379Z" stroke="#F5F5F5" stroke-width="2.67" stroke-linecap="round" stroke-linejoin="round"/>
<path d="M378.577 138.379C378.945 139.017 379.76 139.236 380.398 138.868C381.036 138.499 381.254 137.684 380.886 137.046C380.518 136.408 379.703 136.19 379.065 136.558C378.427 136.926 378.209 137.742 378.577 138.379Z" stroke="#F5F5F5" stroke-width="2.67" stroke-linecap="round" stroke-linejoin="round"/>
</g>
<g filter="url(#filter4_i_124_449)">
<rect x="408.764" y="84" width="80" height="80" rx="16" transform="rotate(-30 408.764 84)" fill="white" fill-opacity="0.02"/>
<rect x="409.447" y="84.183" width="79" height="79" rx="15.5" transform="rotate(-30 409.447 84.183)" stroke="white" stroke-opacity="0.04"/>
<path opacity="0.16" d="M410.471 84.4575L516.338 112.824M477.588 45.7075L449.221 151.575M432.578 70.2505L472.578 139.533M443.403 64.0008L483.403 133.283M454.23 57.7501L494.23 127.032M491.796 67.8159L422.514 107.816M498.045 78.6407L428.763 118.641M504.296 89.467L435.014 129.467M485.055 86.141C491.959 98.0983 487.862 113.388 475.905 120.292C463.947 127.195 448.658 123.098 441.754 111.141C434.85 99.1837 438.947 83.8939 450.905 76.9904C462.862 70.0868 478.152 74.1837 485.055 86.141ZM474.23 92.391C477.682 98.3697 475.633 106.015 469.655 109.466C463.676 112.918 456.031 110.87 452.579 104.891C449.128 98.9124 451.176 91.2675 457.155 87.8157C463.133 84.3639 470.778 86.4124 474.23 92.391Z" stroke="url(#paint6_radial_124_449)" stroke-width="0.5"/>
<g clip-path="url(#clip4_124_449)">
<path d="M456.429 91.8913L454.35 93.0913C453.057 93.838 452.41 94.2117 452.061 94.7486C451.754 95.2209 451.605 95.7778 451.635 96.3401C451.668 96.9795 452.042 97.6267 452.788 98.92L457.855 107.696C458.602 108.989 458.975 109.636 459.512 109.984C459.984 110.291 460.541 110.441 461.104 110.411C461.743 110.378 462.389 110.005 463.68 109.259L472.463 104.189C473.753 103.443 474.399 103.071 474.747 102.534C475.054 102.062 475.204 101.503 475.174 100.941C475.141 100.302 474.768 99.6566 474.023 98.3658L472.821 96.2837M470.642 89.8436L467.309 84.0701M467.309 84.0701L461.535 87.4034M467.309 84.0701L463.893 96.8196" stroke="#F5F5F5" stroke-width="2.67" stroke-linecap="round" stroke-linejoin="round"/>
</g>
</g>
<g filter="url(#filter5_i_124_449)">
<rect x="484.975" y="40" width="80" height="80" rx="16" transform="rotate(-30 484.975 40)" fill="white" fill-opacity="0.02"/>
<rect x="485.658" y="40.183" width="79" height="79" rx="15.5" transform="rotate(-30 485.658 40.183)" stroke="white" stroke-opacity="0.04"/>
<path opacity="0.16" d="M486.682 40.4575L592.549 68.8245M553.799 1.70753L525.432 107.575M508.789 26.2505L548.789 95.5325M519.614 20.0008L559.614 89.2828M530.441 13.7501L570.441 83.0321M568.007 23.8159L498.725 63.8159M574.256 34.6407L504.974 74.6407M580.507 45.467L511.225 85.467M561.266 42.141C568.17 54.0983 564.073 69.3881 552.116 76.2917C540.158 83.1952 524.869 79.0983 517.965 67.141C511.061 55.1837 515.158 39.8939 527.116 32.9904C539.073 26.0868 554.363 30.1837 561.266 42.141ZM550.441 48.391C553.893 54.3697 551.844 62.0146 545.866 65.4663C539.887 68.9181 532.242 66.8697 528.79 60.891C525.339 54.9124 527.387 47.2675 533.366 43.8157C539.344 40.3639 546.989 42.4124 550.441 48.391Z" stroke="url(#paint7_radial_124_449)" stroke-width="0.5"/>
<g clip-path="url(#clip5_124_449)">
<path d="M546.414 58.4145L547.081 59.5692C548.185 61.4824 547.53 63.9287 545.617 65.0333C543.703 66.1379 541.257 65.4824 540.152 63.5692L539.486 62.4145M546.414 58.4145L539.486 62.4145M546.414 58.4145L550.559 56.0212C551.001 55.7661 551.223 55.638 551.367 55.4744C551.642 55.162 551.756 54.7387 551.674 54.3306C551.631 54.116 551.502 53.8934 551.245 53.4482C551.133 53.2534 551.076 53.1561 551.007 53.0721C550.877 52.9132 550.712 52.7864 550.525 52.7018C550.426 52.6571 550.316 52.6277 550.1 52.5697L549.39 52.3795C549.161 52.3182 548.966 52.1684 548.848 51.9632L546.366 47.6649C543.789 43.2009 538.081 41.6714 533.617 44.2487C529.152 46.826 527.623 52.5342 530.2 56.9983L532.682 61.2966C532.8 61.5018 532.832 61.7458 532.771 61.9747L532.581 62.6841C532.523 62.9014 532.494 63.0104 532.483 63.1186C532.463 63.323 532.49 63.529 532.562 63.7211C532.601 63.8228 532.657 63.9202 532.77 64.115C533.027 64.5602 533.155 64.7828 533.319 64.9274C533.632 65.2025 534.055 65.3161 534.463 65.2341C534.676 65.1911 534.898 65.0632 535.34 64.8081L539.486 62.4145M537.307 55.9743L538.283 52.3316M538.283 52.3316L539.259 48.6889M538.283 52.3316L534.64 51.3555M538.283 52.3316L541.926 53.3077" stroke="#F5F5F5" stroke-width="2.67" stroke-linecap="round" stroke-linejoin="round"/>
</g>
</g>
<g filter="url(#filter6_i_124_449)">
<rect x="113.281" y="356.21" width="80" height="80" rx="16" transform="rotate(-30 113.281 356.21)" fill="white" fill-opacity="0.02"/>
<rect x="113.964" y="356.393" width="79" height="79" rx="15.5" transform="rotate(-30 113.964 356.393)" stroke="white" stroke-opacity="0.04"/>
<path opacity="0.16" d="M114.989 356.668L220.856 385.035M182.106 317.918L153.739 423.785M137.096 342.461L177.096 411.743M147.921 336.211L187.921 405.493M158.747 329.96L198.747 399.242M196.313 340.026L127.031 380.026M202.563 350.851L133.281 390.851M208.814 361.677L139.532 401.677M189.573 358.351C196.476 370.309 192.38 385.598 180.422 392.502C168.465 399.405 153.175 395.309 146.272 383.351C139.368 371.394 143.465 356.104 155.422 349.201C167.38 342.297 182.669 346.394 189.573 358.351ZM178.748 364.601C182.199 370.58 180.151 378.225 174.172 381.677C168.194 385.128 160.549 383.08 157.097 377.101C153.645 371.123 155.694 363.478 161.672 360.026C167.651 356.574 175.296 358.623 178.748 364.601Z" stroke="url(#paint8_radial_124_449)" stroke-width="0.5"/>
<g clip-path="url(#clip6_124_449)">
<path d="M157.796 369.309L164.119 380.261C165.026 381.833 165.48 382.619 165.993 382.964C166.945 383.603 168.198 383.562 169.106 382.863C169.596 382.486 169.998 381.673 170.803 380.046L170.805 380.042C171.124 379.397 171.283 379.075 171.499 378.822C171.895 378.359 172.438 378.045 173.038 377.934C173.365 377.873 173.726 377.896 174.446 377.943C176.257 378.059 177.163 378.117 177.735 377.881C178.794 377.444 179.456 376.379 179.378 375.236C179.336 374.619 178.883 373.833 177.975 372.261L171.65 361.305C170.905 360.014 170.531 359.368 169.995 359.02C169.523 358.713 168.965 358.564 168.402 358.594C167.763 358.627 167.117 359 165.824 359.747L159.357 363.48C158.064 364.227 157.417 364.601 157.068 365.137C156.761 365.61 156.612 366.167 156.642 366.729C156.675 367.368 157.049 368.016 157.796 369.309Z" stroke="#F5F5F5" stroke-width="2.67" stroke-linecap="round" stroke-linejoin="round"/>
</g>
</g>
<g filter="url(#filter7_i_124_449)">
<rect x="189.492" y="312.21" width="80" height="80" rx="16" transform="rotate(-30 189.492 312.21)" fill="white" fill-opacity="0.02"/>
<rect x="190.175" y="312.393" width="79" height="79" rx="15.5" transform="rotate(-30 190.175 312.393)" stroke="white" stroke-opacity="0.04"/>
<path opacity="0.16" d="M191.2 312.668L297.067 341.035M258.317 273.918L229.95 379.785M213.307 298.461L253.307 367.743M224.132 292.211L264.132 361.493M234.958 285.96L274.958 355.242M272.524 296.026L203.242 336.026M278.774 306.851L209.492 346.851M285.025 317.677L215.743 357.677M265.784 314.351C272.687 326.309 268.591 341.598 256.633 348.502C244.676 355.405 229.386 351.309 222.483 339.351C215.579 327.394 219.676 312.104 231.633 305.201C243.591 298.297 258.88 302.394 265.784 314.351ZM254.959 320.601C258.41 326.58 256.362 334.225 250.383 337.677C244.405 341.128 236.76 339.08 233.308 333.101C229.856 327.123 231.905 319.478 237.883 316.026C243.862 312.574 251.507 314.623 254.959 320.601Z" stroke="url(#paint9_radial_124_449)" stroke-width="0.5"/>
<g clip-path="url(#clip7_124_449)">
<path opacity="0.32" d="M245.11 323.209L249.777 331.291M240.492 325.875L245.158 333.958M244.753 317.256L235.516 322.59C234.894 321.514 234.584 320.976 234.515 320.45C234.422 319.749 234.612 319.04 235.042 318.478C235.365 318.058 235.904 317.747 236.98 317.126L239.289 315.792C240.365 315.171 240.903 314.86 241.429 314.791C242.13 314.699 242.839 314.889 243.401 315.32C243.821 315.643 244.132 316.18 244.753 317.256Z" stroke="#F5F5F5" stroke-width="2.67" stroke-linecap="round" stroke-linejoin="round"/>
<path d="M247.062 315.923L233.206 323.923M247.062 315.923L249.372 314.59M247.062 315.923L254.931 329.552C255.676 330.843 256.049 331.489 256.083 332.128C256.112 332.69 255.963 333.248 255.656 333.72C255.308 334.257 254.662 334.629 253.371 335.375L246.897 339.112C245.607 339.858 244.96 340.231 244.321 340.264C243.759 340.294 243.202 340.144 242.729 339.837C242.193 339.488 241.819 338.842 241.073 337.549L233.206 323.923M233.206 323.923L230.896 325.256" stroke="#F5F5F5" stroke-width="2.67" stroke-linecap="round" stroke-linejoin="round"/>
</g>
</g>
<g filter="url(#filter8_i_124_449)">
<rect x="265.703" y="268.21" width="80" height="80" rx="16" transform="rotate(-30 265.703 268.21)" fill="white" fill-opacity="0.02"/>
<rect x="266.386" y="268.393" width="79" height="79" rx="15.5" transform="rotate(-30 266.386 268.393)" stroke="white" stroke-opacity="0.04"/>
<path opacity="0.16" d="M267.411 268.668L373.278 297.035M334.528 229.918L306.161 335.785M289.518 254.461L329.518 323.743M300.343 248.211L340.343 317.493M311.169 241.96L351.169 311.242M348.735 252.026L279.453 292.026M354.985 262.851L285.703 302.851M361.236 273.677L291.954 313.677M341.995 270.351C348.898 282.309 344.801 297.598 332.844 304.502C320.887 311.405 305.597 307.309 298.694 295.351C291.79 283.394 295.887 268.104 307.844 261.201C319.801 254.297 335.091 258.394 341.995 270.351ZM331.169 276.601C334.621 282.58 332.573 290.225 326.594 293.677C320.615 297.128 312.971 295.08 309.519 289.101C306.067 283.123 308.115 275.478 314.094 272.026C320.073 268.574 327.718 270.623 331.169 276.601Z" stroke="url(#paint10_radial_124_449)" stroke-width="0.5"/>
<g clip-path="url(#clip8_124_449)">
<path d="M335.583 287.91C333.742 284.722 328.113 284.525 323.012 287.47C317.91 290.416 315.266 295.388 317.107 298.577M321.012 284.006C317.823 285.847 313.746 284.754 311.905 281.566C310.064 278.377 311.156 274.3 314.345 272.459C317.534 270.618 321.611 271.711 323.452 274.899C325.293 278.088 324.2 282.165 321.012 284.006Z" stroke="#F5F5F5" stroke-width="2.67" stroke-linecap="round" stroke-linejoin="round"/>
</g>
</g>
<g filter="url(#filter9_i_124_449)">
<rect x="341.912" y="224.21" width="80" height="80" rx="16" transform="rotate(-30 341.912 224.21)" fill="white" fill-opacity="0.02"/>
<rect x="342.595" y="224.393" width="79" height="79" rx="15.5" transform="rotate(-30 342.595 224.393)" stroke="white" stroke-opacity="0.04"/>
<path opacity="0.16" d="M343.62 224.668L449.487 253.035M410.737 185.918L382.37 291.785M365.727 210.461L405.727 279.743M376.552 204.211L416.552 273.493M387.378 197.96L427.378 267.242M424.944 208.026L355.662 248.026M431.194 218.851L361.912 258.851M437.445 229.677L368.163 269.677M418.204 226.351C425.107 238.309 421.01 253.598 409.053 260.502C397.096 267.405 381.806 263.309 374.902 251.351C367.999 239.394 372.096 224.104 384.053 217.201C396.01 210.297 411.3 214.394 418.204 226.351ZM407.378 232.601C410.83 238.58 408.782 246.225 402.803 249.677C396.824 253.128 389.18 251.08 385.728 245.101C382.276 239.123 384.324 231.478 390.303 228.026C396.282 224.574 403.927 226.623 407.378 232.601Z" stroke="url(#paint11_radial_124_449)" stroke-width="0.5"/>
<g clip-path="url(#clip9_124_449)">
<path opacity="0.32" fill-rule="evenodd" clip-rule="evenodd" d="M397.578 245.958C393.114 248.535 387.406 247.006 384.829 242.542C382.251 238.078 383.781 232.37 388.245 229.792C392.709 227.215 398.417 228.744 400.995 233.208C403.572 237.673 402.042 243.381 397.578 245.958Z" fill="#F5F5F5"/>
<path d="M402.019 240.315L412.947 243.244M397.578 245.958C393.114 248.535 387.406 247.006 384.829 242.542C382.251 238.078 383.781 232.37 388.245 229.792C392.709 227.215 398.417 228.744 400.995 233.208C403.572 237.673 402.042 243.381 397.578 245.958Z" stroke="#F5F5F5" stroke-width="2.67" stroke-linecap="round" stroke-linejoin="round"/>
</g>
</g>
<g filter="url(#filter10_i_124_449)">
<rect x="418.123" y="180.21" width="80" height="80" rx="16" transform="rotate(-30 418.123 180.21)" fill="white" fill-opacity="0.02"/>
<rect x="418.806" y="180.393" width="79" height="79" rx="15.5" transform="rotate(-30 418.806 180.393)" stroke="white" stroke-opacity="0.04"/>
<path opacity="0.16" d="M419.831 180.668L525.698 209.035M486.948 141.918L458.581 247.785M441.938 166.461L481.938 235.743M452.763 160.211L492.763 229.493M463.589 153.96L503.589 223.242M501.155 164.026L431.873 204.026M507.405 174.851L438.123 214.851M513.655 185.677L444.373 225.677M494.415 182.351C501.318 194.309 497.221 209.598 485.264 216.502C473.307 223.405 458.017 219.309 451.113 207.351C444.21 195.394 448.307 180.104 460.264 173.201C472.221 166.297 487.511 170.394 494.415 182.351ZM483.589 188.601C487.041 194.58 484.993 202.225 479.014 205.677C473.035 209.128 465.391 207.08 461.939 201.101C458.487 195.123 460.535 187.478 466.514 184.026C472.493 180.574 480.138 182.623 483.589 188.601Z" stroke="url(#paint12_radial_124_449)" stroke-width="0.5"/>
<g clip-path="url(#clip10_124_449)">
<path opacity="0.32" d="M475.763 181.86C477.538 182.27 479.21 183.039 480.676 184.119C482.142 185.2 483.371 186.57 484.288 188.144C485.204 189.719 485.788 191.464 486.003 193.273C486.219 195.081 486.062 196.915 485.542 198.661M474.564 187.056C475.628 187.302 476.632 187.764 477.511 188.412C478.391 189.061 479.128 189.883 479.678 190.827C480.228 191.772 480.578 192.819 480.708 193.904C480.837 194.989 480.743 196.09 480.431 197.137" stroke="#F5F5F5" stroke-width="2.67" stroke-linecap="round" stroke-linejoin="round"/>
<path d="M461.217 201.517C460.712 200.644 460.46 200.208 460.373 199.788C460.202 198.961 460.432 198.102 460.994 197.471C461.279 197.151 461.716 196.899 462.589 196.395L464.233 195.446C464.557 195.259 464.719 195.165 464.845 195.038C464.957 194.925 465.047 194.793 465.112 194.648C465.186 194.485 465.215 194.3 465.273 193.93L465.826 190.419C466.114 188.589 466.258 187.674 466.66 187.351C467.009 187.072 467.474 186.985 467.9 187.121C468.391 187.278 468.854 188.08 469.781 189.684L475.746 200.017C476.673 201.622 477.136 202.424 477.026 202.928C476.93 203.365 476.623 203.724 476.207 203.886C475.726 204.073 474.861 203.74 473.132 203.075L469.816 201.798C469.467 201.663 469.292 201.596 469.114 201.578C468.956 201.562 468.796 201.575 468.642 201.615C468.469 201.66 468.307 201.754 467.983 201.941L466.339 202.89C465.466 203.394 465.029 203.646 464.609 203.733C463.782 203.905 462.923 203.675 462.293 203.113C461.973 202.827 461.721 202.391 461.217 201.517Z" stroke="#F5F5F5" stroke-width="2.67" stroke-linecap="round" stroke-linejoin="round"/>
</g>
</g>
<g filter="url(#filter11_i_124_449)">
<rect x="494.334" y="136.21" width="80" height="80" rx="16" transform="rotate(-30 494.334 136.21)" fill="white" fill-opacity="0.02"/>
<rect x="495.017" y="136.393" width="79" height="79" rx="15.5" transform="rotate(-30 495.017 136.393)" stroke="white" stroke-opacity="0.04"/>
<path opacity="0.16" d="M496.042 136.668L601.908 165.035M563.158 97.9177L534.792 203.785M518.149 122.461L558.149 191.743M528.974 116.211L568.974 185.493M539.8 109.96L579.8 179.242M577.366 120.026L508.084 160.026M583.616 130.851L514.334 170.851M589.866 141.677L520.584 181.677M570.626 138.351C577.529 150.309 573.432 165.598 561.475 172.502C549.518 179.405 534.228 175.309 527.324 163.351C520.421 151.394 524.518 136.104 536.475 129.201C548.432 122.297 563.722 126.394 570.626 138.351ZM559.8 144.601C563.252 150.58 561.204 158.225 555.225 161.677C549.246 165.128 541.601 163.08 538.15 157.101C534.698 151.123 536.746 143.478 542.725 140.026C548.704 136.574 556.349 138.623 559.8 144.601Z" stroke="url(#paint13_radial_124_449)" stroke-width="0.5"/>
<g clip-path="url(#clip11_124_449)">
<path d="M543.868 155.339L536.583 153.387M536.583 153.387L538.535 146.102M536.583 153.387L551.594 144.72C554.782 142.879 558.86 143.972 560.701 147.161C562.542 150.349 561.449 154.427 558.26 156.267L552.487 159.601" stroke="#F5F5F5" stroke-width="2.67" stroke-linecap="round" stroke-linejoin="round"/>
</g>
</g>
<defs>
<filter id="filter0_i_124_449" x="27.7129" y="264" width="109.281" height="109.282" filterUnits="userSpaceOnUse" color-interpolation-filters="sRGB">
<feFlood flood-opacity="0" result="BackgroundImageFix"/>
<feBlend mode="normal" in="SourceGraphic" in2="BackgroundImageFix" result="shape"/>
<feColorMatrix in="SourceAlpha" type="matrix" values="0 0 0 0 0 0 0 0 0 0 0 0 0 0 0 0 0 0 127 0" result="hardAlpha"/>
<feOffset dy="1"/>
<feComposite in2="hardAlpha" operator="arithmetic" k2="-1" k3="1"/>
<feColorMatrix type="matrix" values="0 0 0 0 1 0 0 0 0 1 0 0 0 0 1 0 0 0 0.08 0"/>
<feBlend mode="normal" in2="shape" result="effect1_innerShadow_124_449"/>
</filter>
<filter id="filter1_i_124_449" x="103.924" y="220" width="109.281" height="109.282" filterUnits="userSpaceOnUse" color-interpolation-filters="sRGB">
<feFlood flood-opacity="0" result="BackgroundImageFix"/>
<feBlend mode="normal" in="SourceGraphic" in2="BackgroundImageFix" result="shape"/>
<feColorMatrix in="SourceAlpha" type="matrix" values="0 0 0 0 0 0 0 0 0 0 0 0 0 0 0 0 0 0 127 0" result="hardAlpha"/>
<feOffset dy="1"/>
<feComposite in2="hardAlpha" operator="arithmetic" k2="-1" k3="1"/>
<feColorMatrix type="matrix" values="0 0 0 0 1 0 0 0 0 1 0 0 0 0 1 0 0 0 0.08 0"/>
<feBlend mode="normal" in2="shape" result="effect1_innerShadow_124_449"/>
</filter>
<filter id="filter2_i_124_449" x="180.133" y="176" width="109.281" height="109.282" filterUnits="userSpaceOnUse" color-interpolation-filters="sRGB">
<feFlood flood-opacity="0" result="BackgroundImageFix"/>
<feBlend mode="normal" in="SourceGraphic" in2="BackgroundImageFix" result="shape"/>
<feColorMatrix in="SourceAlpha" type="matrix" values="0 0 0 0 0 0 0 0 0 0 0 0 0 0 0 0 0 0 127 0" result="hardAlpha"/>
<feOffset dy="1"/>
<feComposite in2="hardAlpha" operator="arithmetic" k2="-1" k3="1"/>
<feColorMatrix type="matrix" values="0 0 0 0 1 0 0 0 0 1 0 0 0 0 1 0 0 0 0.08 0"/>
<feBlend mode="normal" in2="shape" result="effect1_innerShadow_124_449"/>
</filter>
<filter id="filter3_i_124_449" x="332.555" y="88" width="109.281" height="109.282" filterUnits="userSpaceOnUse" color-interpolation-filters="sRGB">
<feFlood flood-opacity="0" result="BackgroundImageFix"/>
<feBlend mode="normal" in="SourceGraphic" in2="BackgroundImageFix" result="shape"/>
<feColorMatrix in="SourceAlpha" type="matrix" values="0 0 0 0 0 0 0 0 0 0 0 0 0 0 0 0 0 0 127 0" result="hardAlpha"/>
<feOffset dy="1"/>
<feComposite in2="hardAlpha" operator="arithmetic" k2="-1" k3="1"/>
<feColorMatrix type="matrix" values="0 0 0 0 1 0 0 0 0 1 0 0 0 0 1 0 0 0 0.08 0"/>
<feBlend mode="normal" in2="shape" result="effect1_innerShadow_124_449"/>
</filter>
<filter id="filter4_i_124_449" x="408.764" y="44" width="109.281" height="109.282" filterUnits="userSpaceOnUse" color-interpolation-filters="sRGB">
<feFlood flood-opacity="0" result="BackgroundImageFix"/>
<feBlend mode="normal" in="SourceGraphic" in2="BackgroundImageFix" result="shape"/>
<feColorMatrix in="SourceAlpha" type="matrix" values="0 0 0 0 0 0 0 0 0 0 0 0 0 0 0 0 0 0 127 0" result="hardAlpha"/>
<feOffset dy="1"/>
<feComposite in2="hardAlpha" operator="arithmetic" k2="-1" k3="1"/>
<feColorMatrix type="matrix" values="0 0 0 0 1 0 0 0 0 1 0 0 0 0 1 0 0 0 0.08 0"/>
<feBlend mode="normal" in2="shape" result="effect1_innerShadow_124_449"/>
</filter>
<filter id="filter5_i_124_449" x="484.975" y="0" width="109.281" height="109.282" filterUnits="userSpaceOnUse" color-interpolation-filters="sRGB">
<feFlood flood-opacity="0" result="BackgroundImageFix"/>
<feBlend mode="normal" in="SourceGraphic" in2="BackgroundImageFix" result="shape"/>
<feColorMatrix in="SourceAlpha" type="matrix" values="0 0 0 0 0 0 0 0 0 0 0 0 0 0 0 0 0 0 127 0" result="hardAlpha"/>
<feOffset dy="1"/>
<feComposite in2="hardAlpha" operator="arithmetic" k2="-1" k3="1"/>
<feColorMatrix type="matrix" values="0 0 0 0 1 0 0 0 0 1 0 0 0 0 1 0 0 0 0.08 0"/>
<feBlend mode="normal" in2="shape" result="effect1_innerShadow_124_449"/>
</filter>
<filter id="filter6_i_124_449" x="113.281" y="316.21" width="109.281" height="109.282" filterUnits="userSpaceOnUse" color-interpolation-filters="sRGB">
<feFlood flood-opacity="0" result="BackgroundImageFix"/>
<feBlend mode="normal" in="SourceGraphic" in2="BackgroundImageFix" result="shape"/>
<feColorMatrix in="SourceAlpha" type="matrix" values="0 0 0 0 0 0 0 0 0 0 0 0 0 0 0 0 0 0 127 0" result="hardAlpha"/>
<feOffset dy="1"/>
<feComposite in2="hardAlpha" operator="arithmetic" k2="-1" k3="1"/>
<feColorMatrix type="matrix" values="0 0 0 0 1 0 0 0 0 1 0 0 0 0 1 0 0 0 0.08 0"/>
<feBlend mode="normal" in2="shape" result="effect1_innerShadow_124_449"/>
</filter>
<filter id="filter7_i_124_449" x="189.492" y="272.21" width="109.281" height="109.282" filterUnits="userSpaceOnUse" color-interpolation-filters="sRGB">
<feFlood flood-opacity="0" result="BackgroundImageFix"/>
<feBlend mode="normal" in="SourceGraphic" in2="BackgroundImageFix" result="shape"/>
<feColorMatrix in="SourceAlpha" type="matrix" values="0 0 0 0 0 0 0 0 0 0 0 0 0 0 0 0 0 0 127 0" result="hardAlpha"/>
<feOffset dy="1"/>
<feComposite in2="hardAlpha" operator="arithmetic" k2="-1" k3="1"/>
<feColorMatrix type="matrix" values="0 0 0 0 1 0 0 0 0 1 0 0 0 0 1 0 0 0 0.08 0"/>
<feBlend mode="normal" in2="shape" result="effect1_innerShadow_124_449"/>
</filter>
<filter id="filter8_i_124_449" x="265.703" y="228.21" width="109.281" height="109.282" filterUnits="userSpaceOnUse" color-interpolation-filters="sRGB">
<feFlood flood-opacity="0" result="BackgroundImageFix"/>
<feBlend mode="normal" in="SourceGraphic" in2="BackgroundImageFix" result="shape"/>
<feColorMatrix in="SourceAlpha" type="matrix" values="0 0 0 0 0 0 0 0 0 0 0 0 0 0 0 0 0 0 127 0" result="hardAlpha"/>
<feOffset dy="1"/>
<feComposite in2="hardAlpha" operator="arithmetic" k2="-1" k3="1"/>
<feColorMatrix type="matrix" values="0 0 0 0 1 0 0 0 0 1 0 0 0 0 1 0 0 0 0.08 0"/>
<feBlend mode="normal" in2="shape" result="effect1_innerShadow_124_449"/>
</filter>
<filter id="filter9_i_124_449" x="341.912" y="184.21" width="109.281" height="109.282" filterUnits="userSpaceOnUse" color-interpolation-filters="sRGB">
<feFlood flood-opacity="0" result="BackgroundImageFix"/>
<feBlend mode="normal" in="SourceGraphic" in2="BackgroundImageFix" result="shape"/>
<feColorMatrix in="SourceAlpha" type="matrix" values="0 0 0 0 0 0 0 0 0 0 0 0 0 0 0 0 0 0 127 0" result="hardAlpha"/>
<feOffset dy="1"/>
<feComposite in2="hardAlpha" operator="arithmetic" k2="-1" k3="1"/>
<feColorMatrix type="matrix" values="0 0 0 0 1 0 0 0 0 1 0 0 0 0 1 0 0 0 0.08 0"/>
<feBlend mode="normal" in2="shape" result="effect1_innerShadow_124_449"/>
</filter>
<filter id="filter10_i_124_449" x="418.123" y="140.21" width="109.281" height="109.282" filterUnits="userSpaceOnUse" color-interpolation-filters="sRGB">
<feFlood flood-opacity="0" result="BackgroundImageFix"/>
<feBlend mode="normal" in="SourceGraphic" in2="BackgroundImageFix" result="shape"/>
<feColorMatrix in="SourceAlpha" type="matrix" values="0 0 0 0 0 0 0 0 0 0 0 0 0 0 0 0 0 0 127 0" result="hardAlpha"/>
<feOffset dy="1"/>
<feComposite in2="hardAlpha" operator="arithmetic" k2="-1" k3="1"/>
<feColorMatrix type="matrix" values="0 0 0 0 1 0 0 0 0 1 0 0 0 0 1 0 0 0 0.08 0"/>
<feBlend mode="normal" in2="shape" result="effect1_innerShadow_124_449"/>
</filter>
<filter id="filter11_i_124_449" x="494.334" y="96.2102" width="109.281" height="109.282" filterUnits="userSpaceOnUse" color-interpolation-filters="sRGB">
<feFlood flood-opacity="0" result="BackgroundImageFix"/>
<feBlend mode="normal" in="SourceGraphic" in2="BackgroundImageFix" result="shape"/>
<feColorMatrix in="SourceAlpha" type="matrix" values="0 0 0 0 0 0 0 0 0 0 0 0 0 0 0 0 0 0 127 0" result="hardAlpha"/>
<feOffset dy="1"/>
<feComposite in2="hardAlpha" operator="arithmetic" k2="-1" k3="1"/>
<feColorMatrix type="matrix" values="0 0 0 0 1 0 0 0 0 1 0 0 0 0 1 0 0 0 0.08 0"/>
<feBlend mode="normal" in2="shape" result="effect1_innerShadow_124_449"/>
</filter>
<radialGradient id="paint0_radial_124_449" cx="0" cy="0" r="1" gradientUnits="userSpaceOnUse" gradientTransform="translate(82.3539 318.641) rotate(60) scale(40)">
<stop stop-color="white"/>
<stop offset="0.5" stop-color="white" stop-opacity="0.25"/>
<stop offset="1" stop-color="white" stop-opacity="0"/>
</radialGradient>
<radialGradient id="paint1_radial_124_449" cx="0" cy="0" r="1" gradientUnits="userSpaceOnUse" gradientTransform="translate(158.565 274.641) rotate(60) scale(40)">
<stop stop-color="white"/>
<stop offset="0.5" stop-color="white" stop-opacity="0.25"/>
<stop offset="1" stop-color="white" stop-opacity="0"/>
</radialGradient>
<radialGradient id="paint2_radial_124_449" cx="0" cy="0" r="1" gradientUnits="userSpaceOnUse" gradientTransform="translate(234.774 230.641) rotate(60) scale(40)">
<stop stop-color="white"/>
<stop offset="0.5" stop-color="white" stop-opacity="0.25"/>
<stop offset="1" stop-color="white" stop-opacity="0"/>
</radialGradient>
<linearGradient id="paint3_linear_124_449" x1="296.344" y1="172" x2="296.344" y2="252" gradientUnits="userSpaceOnUse">
<stop stop-color="#F9FAFB"/>
<stop offset="1" stop-color="#8EA2BB"/>
</linearGradient>
<radialGradient id="paint4_radial_124_449" cx="0" cy="0" r="1" gradientUnits="userSpaceOnUse" gradientTransform="translate(310.985 186.641) rotate(60) scale(40)">
<stop stop-color="#101318"/>
<stop offset="0.5" stop-color="#101318" stop-opacity="0.25"/>
<stop offset="1" stop-color="#101318" stop-opacity="0"/>
</radialGradient>
<radialGradient id="paint5_radial_124_449" cx="0" cy="0" r="1" gradientUnits="userSpaceOnUse" gradientTransform="translate(387.196 142.641) rotate(60) scale(40)">
<stop stop-color="white"/>
<stop offset="0.5" stop-color="white" stop-opacity="0.25"/>
<stop offset="1" stop-color="white" stop-opacity="0"/>
</radialGradient>
<radialGradient id="paint6_radial_124_449" cx="0" cy="0" r="1" gradientUnits="userSpaceOnUse" gradientTransform="translate(463.405 98.641) rotate(60) scale(40)">
<stop stop-color="white"/>
<stop offset="0.5" stop-color="white" stop-opacity="0.25"/>
<stop offset="1" stop-color="white" stop-opacity="0"/>
</radialGradient>
<radialGradient id="paint7_radial_124_449" cx="0" cy="0" r="1" gradientUnits="userSpaceOnUse" gradientTransform="translate(539.616 54.641) rotate(60) scale(40)">
<stop stop-color="white"/>
<stop offset="0.5" stop-color="white" stop-opacity="0.25"/>
<stop offset="1" stop-color="white" stop-opacity="0"/>
</radialGradient>
<radialGradient id="paint8_radial_124_449" cx="0" cy="0" r="1" gradientUnits="userSpaceOnUse" gradientTransform="translate(167.922 370.851) rotate(60) scale(40)">
<stop stop-color="white"/>
<stop offset="0.5" stop-color="white" stop-opacity="0.25"/>
<stop offset="1" stop-color="white" stop-opacity="0"/>
</radialGradient>
<radialGradient id="paint9_radial_124_449" cx="0" cy="0" r="1" gradientUnits="userSpaceOnUse" gradientTransform="translate(244.133 326.851) rotate(60) scale(40)">
<stop stop-color="white"/>
<stop offset="0.5" stop-color="white" stop-opacity="0.25"/>
<stop offset="1" stop-color="white" stop-opacity="0"/>
</radialGradient>
<radialGradient id="paint10_radial_124_449" cx="0" cy="0" r="1" gradientUnits="userSpaceOnUse" gradientTransform="translate(320.344 282.851) rotate(60) scale(40)">
<stop stop-color="white"/>
<stop offset="0.5" stop-color="white" stop-opacity="0.25"/>
<stop offset="1" stop-color="white" stop-opacity="0"/>
</radialGradient>
<radialGradient id="paint11_radial_124_449" cx="0" cy="0" r="1" gradientUnits="userSpaceOnUse" gradientTransform="translate(396.553 238.851) rotate(60) scale(40)">
<stop stop-color="white"/>
<stop offset="0.5" stop-color="white" stop-opacity="0.25"/>
<stop offset="1" stop-color="white" stop-opacity="0"/>
</radialGradient>
<radialGradient id="paint12_radial_124_449" cx="0" cy="0" r="1" gradientUnits="userSpaceOnUse" gradientTransform="translate(472.764 194.851) rotate(60) scale(40)">
<stop stop-color="white"/>
<stop offset="0.5" stop-color="white" stop-opacity="0.25"/>
<stop offset="1" stop-color="white" stop-opacity="0"/>
</radialGradient>
<radialGradient id="paint13_radial_124_449" cx="0" cy="0" r="1" gradientUnits="userSpaceOnUse" gradientTransform="translate(548.975 150.851) rotate(60) scale(40)">
<stop stop-color="white"/>
<stop offset="0.5" stop-color="white" stop-opacity="0.25"/>
<stop offset="1" stop-color="white" stop-opacity="0"/>
</radialGradient>
<clipPath id="clip0_124_449">
<rect width="32" height="32" fill="white" transform="translate(60.498 312.785) rotate(-30)"/>
</clipPath>
<clipPath id="clip1_124_449">
<rect width="32" height="32" fill="white" transform="translate(136.709 268.785) rotate(-30)"/>
</clipPath>
<clipPath id="clip2_124_449">
<rect width="32" height="32" fill="white" transform="translate(212.918 224.785) rotate(-30)"/>
</clipPath>
<clipPath id="clip3_124_449">
<rect width="32" height="32" fill="white" transform="translate(289.129 180.785) rotate(-30)"/>
</clipPath>
<clipPath id="clip4_124_449">
<rect width="32" height="32" fill="white" transform="translate(441.549 92.7846) rotate(-30)"/>
</clipPath>
<clipPath id="clip5_124_449">
<rect width="32" height="32" fill="white" transform="translate(517.76 48.7846) rotate(-30)"/>
</clipPath>
<clipPath id="clip6_124_449">
<rect width="32" height="32" fill="white" transform="translate(146.066 364.995) rotate(-30)"/>
</clipPath>
<clipPath id="clip7_124_449">
<rect width="32" height="32" fill="white" transform="translate(222.277 320.995) rotate(-30)"/>
</clipPath>
<clipPath id="clip8_124_449">
<rect width="32" height="32" fill="white" transform="translate(298.488 276.995) rotate(-30)"/>
</clipPath>
<clipPath id="clip9_124_449">
<rect width="32" height="32" fill="white" transform="translate(374.697 232.995) rotate(-30)"/>
</clipPath>
<clipPath id="clip10_124_449">
<rect width="32" height="32" fill="white" transform="translate(450.908 188.995) rotate(-30)"/>
</clipPath>
<clipPath id="clip11_124_449">
<rect width="32" height="32" fill="white" transform="translate(527.119 144.995) rotate(-30)"/>
</clipPath>
</defs>
</svg>
